<svg width="168" height="52" viewBox="0 0 168 52" fill="none" xmlns="http://www.w3.org/2000/svg">
<path fill-rule="evenodd" clip-rule="evenodd" d="M25.7464 32.3192L30.0385 36.6112V52H21.4563V36.6112L25.7484 32.3192H25.7464ZM31.8159 26.2516L36.106 21.9596H30.0385V15.8901L25.7464 20.1821L21.4563 15.892V21.9616H15.3888L19.6789 26.2536L15.3868 30.5457H21.4523L21.4504 36.6112L10.5716 47.49L4.50413 41.4224L15.3809 30.5457H0V21.9635H15.3888L4.50413 11.0788L10.5716 5.01131L21.4563 15.894V0.505249H30.0385V15.8861L40.9172 5.00735L46.9847 11.0749L36.106 21.9616H51.4948V30.5437H36.108L31.8159 26.2516ZM46.9887 41.4244L40.9212 47.492L30.0404 36.6112V30.5437H36.108L46.9887 41.4244Z" fill="#161A21"/>
<path d="M71.6512 15.7513C71.5739 14.8834 70.6168 14.4494 68.7819 14.4494C68.0011 14.4494 67.4245 14.5346 67.048 14.705C66.6755 14.8755 66.4872 15.1033 66.4872 15.3926C66.4872 15.6582 66.5824 15.8504 66.7726 15.9732C66.9648 16.0921 67.3195 16.1793 67.8406 16.2388L72.2357 16.7342C73.0164 16.8233 73.6704 16.9402 74.1915 17.0968C74.7166 17.2513 75.1744 17.4733 75.5747 17.7666C75.971 18.0559 76.2583 18.4284 76.4406 18.8861C76.6209 19.3439 76.7101 19.9066 76.7101 20.5685C76.7101 21.2046 76.5991 21.7594 76.3772 22.229C76.1513 22.6987 75.8382 23.087 75.434 23.3942C75.0278 23.7013 74.5066 23.9451 73.8626 24.1333C73.2186 24.3216 72.5171 24.4543 71.7542 24.5296C70.9933 24.6069 70.1056 24.6445 69.097 24.6445C68.1656 24.6445 67.3373 24.6069 66.616 24.5375C65.8948 24.4642 65.2071 24.3334 64.5532 24.1412C63.8993 23.949 63.3603 23.6934 62.9264 23.3763C62.4983 23.0593 62.1496 22.6452 61.888 22.1299C61.6265 21.6187 61.4778 21.0163 61.4481 20.3327H66.1939C66.2356 20.9093 66.4932 21.3116 66.9668 21.5335C67.4404 21.7594 68.1835 21.8704 69.1921 21.8704C71.0032 21.8704 71.9127 21.5077 71.9127 20.7864C71.9127 20.4912 71.8017 20.2772 71.5877 20.1424C71.3698 20.0097 70.9953 19.9066 70.4602 19.8313L66.3861 19.3023C65.6213 19.1992 64.9773 19.0724 64.4521 18.9218C63.931 18.7692 63.4614 18.5552 63.0473 18.2818C62.6291 18.0083 62.322 17.6536 62.1258 17.2216C61.9257 16.7896 61.8266 16.2645 61.8266 15.6502C61.8266 15.0578 61.9455 14.5386 62.1773 14.0828C62.4131 13.6251 62.7361 13.2506 63.1424 12.9593C63.5486 12.668 64.0558 12.4302 64.6543 12.2459C65.2527 12.0616 65.8928 11.9309 66.5685 11.8536C67.2482 11.7803 68.0031 11.7426 68.8354 11.7426C73.6704 11.7426 76.1394 13.0762 76.2404 15.7493H71.6492L71.6512 15.7513Z" fill="#161A21"/>
<path d="M89.0332 24.1772V22.6831H88.9144C87.5947 23.88 85.8984 24.4804 83.8237 24.4804C83.043 24.4804 82.3375 24.3873 81.7015 24.203C81.0654 24.0187 80.5106 23.7492 80.035 23.3866C79.5574 23.0239 79.1889 22.5503 78.9293 21.9638C78.6697 21.3753 78.5409 20.6956 78.5409 19.9228V12.2126H82.9023V18.5496C82.9023 20.1863 83.8118 21.0087 85.6309 21.0087C86.0451 21.0087 86.4334 20.9532 86.796 20.8502C87.1626 20.7471 87.5134 20.5807 87.8503 20.3508C88.1832 20.1249 88.4527 19.792 88.6488 19.36C88.849 18.9281 88.948 18.4129 88.948 17.8224V12.2145H93.3134V24.1812H89.0332V24.1772Z" fill="#161A21"/>
<path d="M106.321 12.2105H110.597V23.5153C110.597 24.189 110.546 24.7617 110.435 25.2373C110.328 25.7148 110.12 26.1726 109.811 26.6125C109.5 27.0524 109.068 27.4071 108.521 27.6726C107.97 27.9421 107.243 28.1522 106.333 28.3127C105.423 28.4712 104.334 28.5524 103.061 28.5524C101.849 28.5524 100.793 28.4672 99.889 28.3008C98.9874 28.1343 98.2701 27.9203 97.737 27.6568C97.208 27.3952 96.776 27.0643 96.4391 26.6699C96.1022 26.2776 95.8744 25.8932 95.7515 25.5246C95.6306 25.1521 95.5474 24.726 95.5117 24.2524H100.269C100.406 25.2016 101.337 25.6792 103.059 25.6792C103.725 25.6792 104.268 25.6356 104.696 25.5385C105.122 25.4453 105.447 25.2987 105.669 25.0946C105.895 24.8905 106.046 24.6686 106.123 24.4288C106.204 24.1851 106.244 23.8819 106.244 23.5113V21.6269H106.115C105.645 22.1401 105.029 22.5404 104.258 22.8237C103.493 23.1091 102.643 23.2518 101.704 23.2518C99.6809 23.2518 98.0858 22.7643 96.9127 21.7834C95.7376 20.8045 95.1531 19.4036 95.1531 17.5766C95.1531 15.7496 95.7376 14.3466 96.9127 13.3697C98.0838 12.3908 99.6809 11.9014 101.704 11.9014C102.665 11.9014 103.533 12.05 104.314 12.3492C105.095 12.6484 105.723 13.0765 106.198 13.6313H106.317V12.2046L106.321 12.2105ZM102.952 20.1249C104.042 20.1249 104.879 19.899 105.455 19.4452C106.032 18.9914 106.321 18.3692 106.321 17.5825C106.321 16.7958 106.032 16.1736 105.455 15.7199C104.879 15.2641 104.042 15.0362 102.952 15.0362C101.892 15.0362 101.082 15.2542 100.527 15.6941C99.9682 16.13 99.6908 16.7582 99.6908 17.5825C99.6908 18.4029 99.9682 19.035 100.527 19.4709C101.082 19.9069 101.89 20.1249 102.952 20.1249Z" fill="#161A21"/>
<path d="M123.447 24.1772V22.6831H123.328C122.009 23.88 120.312 24.4804 118.238 24.4804C117.457 24.4804 116.752 24.3873 116.115 24.203C115.479 24.0187 114.925 23.7492 114.449 23.3866C113.971 23.0239 113.603 22.5503 113.343 21.9638C113.084 21.3753 112.955 20.6956 112.955 19.9228V12.2126H117.316V18.5496C117.316 20.1863 118.226 21.0087 120.045 21.0087C120.459 21.0087 120.847 20.9532 121.21 20.8502C121.577 20.7471 121.927 20.5807 122.264 20.3508C122.597 20.1249 122.867 19.792 123.063 19.36C123.263 18.9281 123.362 18.4129 123.362 17.8224V12.2145H127.727V24.1812H123.447V24.1772Z" fill="#161A21"/>
<path d="M130.057 12.2099H134.334V13.7773H134.452C135.067 13.1234 135.794 12.6419 136.634 12.3427C137.476 12.0435 138.489 11.8949 139.672 11.8949C140.013 11.8949 140.352 11.9246 140.688 11.99V16.2147C139.953 16.0561 139.291 15.9749 138.697 15.9749C135.848 15.9749 134.419 17.1143 134.419 19.3871V24.1746H130.057V12.208V12.2099Z" fill="#161A21"/>
<path d="M149.021 20.8711C149.687 20.8711 150.248 20.8533 150.711 20.8077V24.1763C149.824 24.3051 148.926 24.3725 148.024 24.3725C146.205 24.3725 144.949 24.0991 144.25 23.5561C143.554 23.0092 143.207 22.0482 143.207 20.669V14.8947H141.182V12.2117H143.207V8.96194H147.559V12.2117H150.723V14.8947H147.559V19.8328C147.559 20.2251 147.68 20.4946 147.925 20.6452C148.165 20.7978 148.532 20.8711 149.023 20.8711H149.021Z" fill="#161A21"/>
<path d="M166.685 22.2467C166.685 23.1859 166.792 23.7883 167.01 24.0459V24.1747H162.739C162.517 23.9488 162.406 23.5386 162.406 22.9402V22.53C161.834 23.2355 161.069 23.7645 160.108 24.1153C159.151 24.466 158.075 24.6404 156.88 24.6404C156.234 24.6404 155.612 24.5631 155.023 24.4085C154.435 24.254 153.9 24.0202 153.416 23.713C152.933 23.4059 152.546 22.9957 152.263 22.4825C151.977 21.9653 151.835 21.3728 151.835 20.707C151.835 20.061 151.928 19.4982 152.112 19.0286C152.297 18.559 152.566 18.1785 152.929 17.8872C153.291 17.5959 153.701 17.374 154.163 17.2175C154.625 17.0629 155.168 16.9519 155.79 16.8846L160.859 16.3773C161.315 16.3258 161.644 16.2366 161.842 16.1118C162.046 15.9869 162.145 15.7828 162.145 15.5094C162.145 14.8594 161.346 14.5364 159.753 14.5364C159.058 14.5364 158.489 14.6395 158.033 14.8495C157.581 15.0556 157.338 15.3707 157.294 15.7888H152.681C152.703 15.1903 152.843 14.6573 153.103 14.1877C153.363 13.718 153.705 13.3297 154.131 13.0265C154.559 12.7233 155.071 12.4756 155.669 12.2794C156.268 12.0833 156.9 11.9465 157.562 11.8613C158.219 11.7801 158.937 11.7404 159.71 11.7404C160.564 11.7404 161.324 11.7741 162.002 11.8435C162.674 11.9109 163.314 12.0317 163.914 12.2061C164.513 12.3805 165.012 12.6044 165.409 12.8858C165.807 13.1672 166.118 13.5298 166.348 13.9697C166.574 14.4096 166.689 14.9228 166.689 15.5074V22.2427L166.685 22.2467ZM162.319 18.9672V18.5015C162.131 18.6244 161.739 18.7314 161.14 18.8265L157.946 19.3041C157.425 19.3813 157.032 19.53 156.771 19.74C156.505 19.954 156.375 20.2691 156.375 20.6892C156.375 21.5472 157.025 21.9752 158.322 21.9752C158.655 21.9752 158.994 21.9455 159.347 21.8821C159.698 21.8226 160.052 21.7116 160.415 21.5571C160.774 21.4025 161.095 21.2163 161.372 20.9963C161.649 20.7783 161.879 20.489 162.052 20.1343C162.23 19.7796 162.317 19.3912 162.317 18.9652L162.319 18.9672Z" fill="#161A21"/>
<path d="M66.7008 34.5776C67.8125 33.4659 69.3026 32.9111 71.1633 32.9111C73.2301 32.9111 74.8669 33.4659 76.0835 34.5776C77.2963 35.6912 77.9026 37.2547 77.9026 39.2758C77.9026 41.299 77.2963 42.8644 76.0835 43.9781C74.8669 45.0917 73.2301 45.6446 71.1633 45.6446C69.2075 45.6446 67.6916 45.0303 66.6157 43.8037H66.4967V45.1789H62.2205V29.1164H66.5819V34.5756H66.7008V34.5776ZM69.9506 42.4404C71.0702 42.4404 71.9203 42.1709 72.4969 41.6339C73.0735 41.0949 73.3629 40.3102 73.3629 39.2758C73.3629 38.2454 73.0755 37.4568 72.4969 36.9178C71.9203 36.3748 71.0702 36.1054 69.9506 36.1054C68.827 36.1054 67.9572 36.3867 67.3528 36.9475C66.7464 37.5123 66.4432 38.289 66.4432 39.2758C66.4432 40.2666 66.7464 41.0394 67.3528 41.6002C67.9591 42.159 68.827 42.4404 69.9506 42.4404Z" fill="#161A21"/>
<path d="M81.2658 34.4273C82.6192 33.3077 84.6008 32.7489 87.2144 32.7489C89.8281 32.7489 91.8097 33.3077 93.1591 34.4273C94.5125 35.5469 95.1843 37.1341 95.1843 39.1929C95.1843 41.2518 94.5105 42.841 93.1591 43.9625C91.8097 45.0861 89.8281 45.6488 87.2144 45.6488C84.6008 45.6488 82.6192 45.0881 81.2698 43.9625C79.9164 42.843 79.2446 41.2538 79.2446 39.1929C79.2446 37.1341 79.9184 35.5469 81.2678 34.4273H81.2658ZM84.6523 41.5946C85.2329 42.1593 86.0869 42.4407 87.2144 42.4407C88.342 42.4407 89.196 42.1593 89.7766 41.5946C90.3572 41.0338 90.6485 40.2313 90.6485 39.1909C90.6485 38.1586 90.3572 37.36 89.7766 36.7952C89.196 36.2345 88.342 35.9531 87.2144 35.9531C86.0869 35.9531 85.2329 36.2345 84.6523 36.7952C84.0717 37.36 83.7804 38.1586 83.7804 39.1909C83.7804 40.2293 84.0717 41.0318 84.6523 41.5946Z" fill="#161A21"/>
<path d="M109.951 45.1811H96.0757V41.8858L103.384 36.3414H96.5532V33.2145H109.951V36.4642L102.605 42.0265H109.951V45.1811Z" fill="#161A21"/>
<path d="M113.088 34.4273C114.441 33.3077 116.423 32.7489 119.037 32.7489C121.65 32.7489 123.632 33.3077 124.981 34.4273C126.335 35.5469 127.006 37.1341 127.006 39.1929C127.006 41.2518 126.333 42.841 124.981 43.9625C123.632 45.0861 121.65 45.6488 119.037 45.6488C116.423 45.6488 114.441 45.0881 113.092 43.9625C111.739 42.843 111.067 41.2538 111.067 39.1929C111.067 37.1341 111.741 35.5469 113.088 34.4273ZM116.474 41.5946C117.055 42.1593 117.909 42.4407 119.037 42.4407C120.164 42.4407 121.018 42.1593 121.599 41.5946C122.179 41.0338 122.471 40.2313 122.471 39.1909C122.471 38.1586 122.179 37.36 121.599 36.7952C121.018 36.2345 120.164 35.9531 119.037 35.9531C117.909 35.9531 117.055 36.2345 116.474 36.7952C115.894 37.36 115.603 38.1586 115.603 39.1909C115.603 40.2293 115.894 41.0318 116.474 41.5946Z" fill="#161A21"/>
<path d="M128.829 33.2151H133.107V34.7825H133.226C133.84 34.1286 134.568 33.6471 135.408 33.3479C136.25 33.0487 137.264 32.9001 138.445 32.9001C138.786 32.9001 139.125 32.9298 139.462 32.9952V37.2198C138.727 37.0613 138.065 36.9801 137.469 36.9801C134.619 36.9801 133.19 38.1195 133.19 40.3923V45.1798H128.829V33.2131V33.2151Z" fill="#161A21"/>
<path fill-rule="evenodd" clip-rule="evenodd" d="M96.8845 9.66983V6.85602H107.843L109.249 8.26491L107.843 9.67182L96.8845 9.66983Z" fill="#161A21"/>
</svg>
