<svg width="20" height="15" viewBox="0 0 20 15" fill="none" xmlns="http://www.w3.org/2000/svg">
<path d="M18.3437 0.225633H13.4894C12.6779 0.225082 11.8905 0.500926 11.2568 1.00773C10.6231 1.51453 10.1809 2.22205 10.0031 3.01376C9.82487 2.22227 9.38258 1.515 8.74897 1.00827C8.11537 0.501548 7.32818 0.225537 6.51687 0.225633H1.66624C1.22421 0.225798 0.80033 0.401468 0.487766 0.714032C0.175202 1.0266 -0.000467592 1.45048 -0.00063324 1.89251V10.4275C-0.000467592 10.8695 0.175202 11.2934 0.487766 11.606C0.80033 11.9185 1.22421 12.0942 1.66624 12.0944H4.78062C8.32937 12.0944 9.38812 12.9413 9.89499 14.6988C9.91937 14.7963 10.0756 14.7963 10.1031 14.6988C10.6137 12.9419 11.6725 12.0944 15.2175 12.0944H18.3319C18.7739 12.0942 19.1978 11.9185 19.5103 11.606C19.8229 11.2934 19.9986 10.8695 19.9987 10.4275V1.89626C19.9988 1.45572 19.8247 1.03302 19.5145 0.720224C19.2043 0.407431 18.783 0.229885 18.3425 0.226257L18.3437 0.225633ZM8.40249 9.44063C8.40266 9.4566 8.39964 9.47244 8.3936 9.48723C8.38757 9.50202 8.37864 9.51545 8.36735 9.52674C8.35606 9.53803 8.34263 9.54696 8.32784 9.55299C8.31305 9.55903 8.29721 9.56205 8.28124 9.56188H2.71499C2.69905 9.56196 2.68324 9.55888 2.66849 9.55282C2.65375 9.54676 2.64035 9.53783 2.62907 9.52655C2.61779 9.51528 2.60887 9.50188 2.6028 9.48713C2.59674 9.47238 2.59366 9.45658 2.59374 9.44063V8.64563C2.59374 8.58001 2.64562 8.52438 2.71499 8.52438H8.28437C8.34999 8.52438 8.40562 8.57626 8.40562 8.64563V9.44063H8.40249ZM8.40249 7.32626C8.40257 7.3422 8.3995 7.35801 8.39343 7.37276C8.38737 7.3875 8.37844 7.4009 8.36716 7.41218C8.35589 7.42345 8.34249 7.43238 8.32774 7.43845C8.31299 7.44451 8.29719 7.44759 8.28124 7.44751H2.71499C2.69905 7.44759 2.68324 7.44451 2.66849 7.43845C2.65375 7.43238 2.64035 7.42345 2.62907 7.41218C2.61779 7.4009 2.60887 7.3875 2.6028 7.37276C2.59674 7.35801 2.59366 7.3422 2.59374 7.32626V6.53126C2.59374 6.46501 2.64562 6.41001 2.71499 6.41001H8.28437C8.34999 6.41001 8.40562 6.46188 8.40562 6.53126V7.32626H8.40249ZM8.40249 5.21188C8.40257 5.22783 8.3995 5.24363 8.39343 5.25838C8.38737 5.27313 8.37844 5.28653 8.36716 5.2978C8.35589 5.30908 8.34249 5.31801 8.32774 5.32407C8.31299 5.33014 8.29719 5.33322 8.28124 5.33313H2.71499C2.69905 5.33322 2.68324 5.33014 2.66849 5.32407C2.65375 5.31801 2.64035 5.30908 2.62907 5.2978C2.61779 5.28653 2.60887 5.27313 2.6028 5.25838C2.59674 5.24363 2.59366 5.22783 2.59374 5.21188V4.41688C2.59374 4.35126 2.64562 4.29563 2.71499 4.29563H8.28437C8.34999 4.29563 8.40562 4.34751 8.40562 4.41688V5.21188H8.40249ZM17.4062 9.43751C17.4063 9.45345 17.4032 9.46926 17.3972 9.484C17.3911 9.49875 17.3822 9.51215 17.3709 9.52343C17.3596 9.5347 17.3462 9.54363 17.3315 9.5497C17.3167 9.55576 17.3009 9.55884 17.285 9.55876H11.7187C11.7028 9.55884 11.687 9.55576 11.6722 9.5497C11.6575 9.54363 11.6441 9.5347 11.6328 9.52343C11.6215 9.51215 11.6126 9.49875 11.6066 9.484C11.6005 9.46926 11.5974 9.45345 11.5975 9.43751V8.64251C11.5975 8.57688 11.6494 8.52126 11.7187 8.52126H17.2881C17.3544 8.52126 17.4094 8.57313 17.4094 8.64251V9.43751H17.4062ZM17.4062 7.32313C17.4064 7.3391 17.4034 7.35494 17.3974 7.36973C17.3913 7.38452 17.3824 7.39795 17.3711 7.40924C17.3598 7.42053 17.3464 7.42946 17.3316 7.43549C17.3168 7.44153 17.301 7.44455 17.285 7.44438H11.7187C11.7028 7.44447 11.687 7.44139 11.6722 7.43532C11.6575 7.42926 11.6441 7.42033 11.6328 7.40905C11.6215 7.39778 11.6126 7.38438 11.6066 7.36963C11.6005 7.35488 11.5974 7.33908 11.5975 7.32313V6.52813C11.5975 6.46251 11.6494 6.40688 11.7187 6.40688H17.2881C17.3544 6.40688 17.4094 6.45876 17.4094 6.52813V7.32313H17.4062ZM17.4062 5.20813C17.4063 5.22408 17.4032 5.23988 17.3972 5.25463C17.3911 5.26938 17.3822 5.28278 17.3709 5.29405C17.3596 5.30533 17.3462 5.31426 17.3315 5.32032C17.3167 5.32639 17.3009 5.32947 17.285 5.32938H11.7187C11.7028 5.32947 11.687 5.32639 11.6722 5.32032C11.6575 5.31426 11.6441 5.30533 11.6328 5.29405C11.6215 5.28278 11.6126 5.26938 11.6066 5.25463C11.6005 5.23988 11.5974 5.22408 11.5975 5.20813V4.41626C11.5975 4.35063 11.6494 4.29501 11.7187 4.29501H17.2881C17.3544 4.29501 17.4094 4.34688 17.4094 4.41626V5.20813H17.4062Z" fill="white"/>
</svg>
