<svg width="19" height="25" viewBox="0 0 19 25" fill="none" xmlns="http://www.w3.org/2000/svg">
<path d="M6.95173 19.0473H11.5247C11.6736 17.6163 12.365 16.4353 13.4874 15.146C13.6149 15.0007 14.4259 14.1138 14.5218 13.9876C15.3185 12.9371 15.8179 11.6705 15.9624 10.3336C16.1069 8.99666 15.8907 7.64386 15.3387 6.43095C14.7867 5.21804 13.9214 4.19434 12.8423 3.47775C11.7632 2.76117 10.5143 2.38083 9.23942 2.38054C7.96452 2.38026 6.71546 2.76003 5.63609 3.47613C4.55673 4.19223 3.69095 5.21554 3.13846 6.4282C2.58597 7.64086 2.36925 8.99356 2.51324 10.3305C2.65723 11.6675 3.15609 12.9343 3.95236 13.9852C4.04937 14.1126 4.86266 15.0007 4.98787 15.1448C6.11137 16.4353 6.80283 17.6163 6.95173 19.0473ZM11.4942 21.4284H6.98219V22.6189H11.4942V21.4284ZM2.19267 15.4757C1.1303 14.0748 0.464502 12.3857 0.27197 10.6028C0.0794373 8.82002 0.368004 7.01606 1.10443 5.39876C1.84085 3.78146 2.99517 2.41663 4.43442 1.46148C5.87367 0.506324 7.53929 -0.000287207 9.23942 1.22153e-07C10.9396 0.000287451 12.605 0.507462 14.044 1.4631C15.4829 2.41874 16.6368 3.78396 17.3728 5.40151C18.1087 7.01906 18.3967 8.82312 18.2037 10.6059C18.0106 12.3886 17.3443 14.0776 16.2815 15.4781C15.5821 16.3972 13.7502 17.8568 13.7502 19.6426V22.6189C13.7502 23.2504 13.5125 23.8561 13.0895 24.3026C12.6664 24.7491 12.0926 25 11.4942 25H6.98219C6.38386 25 5.81003 24.7491 5.38695 24.3026C4.96386 23.8561 4.72617 23.2504 4.72617 22.6189V19.6426C4.72617 17.8568 2.89316 16.3972 2.19267 15.4757ZM10.3662 9.52783H13.1862L8.1102 16.671V11.9089H5.29018L10.3662 4.76094V9.52902V9.52783Z"/>
</svg>
