<svg width="19" height="28" viewBox="0 0 19 28" xmlns="http://www.w3.org/2000/svg">
<path d="M16.8361 22.8064V21.8248C16.8361 20.2613 15.9648 18.8556 14.5627 18.1562L11.9009 16.829V11.8714C11.9009 10.5645 11.2917 9.36778 10.2723 8.60171C10.3255 8.31291 10.5026 8.06999 10.7329 7.99359C12.4158 7.43512 13.5459 5.871 13.5459 4.10131C13.5459 1.56627 11.2748 -0.354187 8.74839 0.0555321C6.79467 0.372063 5.32063 2.18725 5.32063 4.27692V7.04957C3.27056 9.2129 2.0306 12.144 2.0306 15.3041V19.9374C2.0306 21.1653 2.37397 22.3405 3.01487 23.3543C1.47793 23.9489 0.38559 25.4397 0.38559 27.1799V28.0002H16.0134C17.374 28.0002 18.4812 26.896 18.4812 25.5393C18.4817 24.9777 18.3288 24.4266 18.039 23.9451C17.7492 23.4636 17.3334 23.0699 16.8361 22.8064ZM13.9863 19.7105C14.7337 20.153 15.1909 20.9476 15.1909 21.8248V22.2136L13.3277 21.594L13.9863 19.7105ZM6.96586 4.27692C6.96586 2.98301 7.84577 1.86405 9.01269 1.67477C10.5911 1.41845 11.9009 2.62989 11.9009 4.10131C11.9015 4.61811 11.7388 5.12195 11.4359 5.54126C11.133 5.96057 10.7054 6.27402 10.2137 6.43707C9.56443 6.65243 9.05979 7.15403 8.80169 7.79124L6.96586 6.87567V4.27692ZM3.67561 15.3041C3.67561 12.7274 4.61124 10.2936 6.32156 8.38898L8.89167 9.67031C9.73326 10.0896 10.2559 10.9336 10.2559 11.8715V17.8428L12.5047 18.9646L11.767 21.0756L8.61082 20.026V12.3047H6.9658V21.2085L9.45734 22.0369C8.36028 23.2516 6.62353 23.7405 5.00429 23.2025L4.9522 23.185C4.12799 22.2983 3.67561 21.1531 3.67561 19.9373V15.3041ZM16.0134 26.3596H2.17152C2.49779 25.4414 3.35604 24.7725 4.37474 24.7222C4.44778 24.7405 5.21929 25.0607 6.34404 25.0607C8.21974 25.0607 10.0113 24.1573 11.1168 22.5883L15.838 24.1577C16.1288 24.2542 16.3818 24.4396 16.561 24.6876C16.7402 24.9356 16.8365 25.2336 16.8362 25.5393C16.8362 25.9915 16.4672 26.3596 16.0135 26.3596H16.0134Z"/>
</svg>
