<svg width="314" height="450" viewBox="0 0 314 450" fill="none" xmlns="http://www.w3.org/2000/svg">
<g clip-path="url(#clip0_132_1287)">
<rect width="314" height="450" rx="30" fill="#672CBC"/>
<g style="mix-blend-mode:soft-light" opacity="0.5">
<path d="M-14 147.07H92.3C92.3 147.07 84.7 123.77 71.9 127.17C59.1 130.47 59.6 133.37 59.6 133.37C59.6 133.37 55.8 113.47 38.7 116.27C21.6 119.07 17.8 132.87 17.8 132.87C17.8 132.87 6.90001 128.57 2.10001 132.87C-2.59999 137.17 -1.69998 139.47 -1.69998 139.47C-1.69998 139.47 -12.1 134.77 -14 147.07Z" fill="white"/>
</g>
<g style="mix-blend-mode:soft-light" opacity="0.8">
<path d="M267 104.216C265.8 100.816 263.1 94.9161 258.9 93.5161C252.9 91.5161 244 98.1161 244 98.1161C244 98.1161 239.7 82.6161 225.3 82.0161C210.9 81.4161 213.5 97.8161 213.5 97.8161C213.5 97.8161 209.8 96.7161 202.3 94.4161C194.8 92.1161 192.2 99.0161 192.2 99.0161C187.5 97.3161 185.6 101.816 185 104.216H267Z" fill="white"/>
</g>
<path d="M43.7 4C43.7 4 43.5 6.6 41 6.9C43.5 7.2 43.7 9.8 43.7 9.8C43.7 9.8 43.9 7.2 46.4 6.9C43.9 6.7 43.7 4 43.7 4Z" fill="#FFD08A"/>
<path d="M177.7 45C177.7 45 177.5 47.6 175 47.9C177.5 48.2 177.7 50.8 177.7 50.8C177.7 50.8 177.9 48.2 180.4 47.9C177.9 47.7 177.7 45 177.7 45Z" fill="#FFD08A"/>
<path d="M79.7 35C79.7 35 79.5 37.6 77 37.9C79.5 38.2 79.7 40.8 79.7 40.8C79.7 40.8 79.9 38.2 82.4 37.9C79.9 37.7 79.7 35 79.7 35Z" fill="#FFD08A"/>
<path d="M299.7 104C299.7 104 299.5 106.6 297 106.9C299.5 107.2 299.7 109.8 299.7 109.8C299.7 109.8 299.9 107.2 302.4 106.9C299.8 106.7 299.7 104 299.7 104Z" fill="#FFD08A"/>
<path d="M183.3 163.6C183.3 163.6 183.1 166.2 180.6 166.5C183.1 166.8 183.3 169.4 183.3 169.4C183.3 169.4 183.5 166.8 186 166.5C183.4 166.3 183.3 163.6 183.3 163.6Z" fill="#FFD08A"/>
<path d="M139.1 74C139.1 74 138.6 81 132 81.6C138.6 82.3 139.1 89.2 139.1 89.2C139.1 89.2 139.6 82.2 146.2 81.6C139.6 81 139.1 74 139.1 74Z" fill="#FFD08A"/>
<path d="M15.1 62.7C15.1 62.7 14.6 69.7 8 70.3C14.6 71 15.1 77.9 15.1 77.9C15.1 77.9 15.6 70.9 22.2 70.3C15.6 69.7 15.1 62.7 15.1 62.7Z" fill="#FFD08A"/>
<path d="M132.2 4C132.2 4 131.8 9.1 127 9.6C131.8 10.1 132.2 15.2 132.2 15.2C132.2 15.2 132.6 10.1 137.4 9.6C132.6 9 132.2 4 132.2 4Z" fill="#FFD08A"/>
<path d="M58.6 99C58.6 99 58.3 103.5 54 104C58.3 104.4 58.6 109 58.6 109C58.6 109 58.9 104.5 63.2 104C59 103.5 58.6 99 58.6 99Z" fill="#FFD08A"/>
<path d="M99.5 198.9C99.5 198.9 99.2 203.4 94.9 203.9C99.2 204.3 99.5 208.9 99.5 208.9C99.5 208.9 99.8 204.4 104.1 203.9C99.8 203.4 99.5 198.9 99.5 198.9Z" fill="#FFD08A"/>
<g style="mix-blend-mode:soft-light" opacity="0.5">
<path d="M237.8 172.5H344.1C344.1 172.5 336.5 149.2 323.7 152.6C310.9 155.9 311.4 158.8 311.4 158.8C311.4 158.8 307.6 138.9 290.5 141.7C273.4 144.5 269.6 158.3 269.6 158.3C269.6 158.3 258.7 154 253.9 158.3C249.2 162.6 250.1 164.9 250.1 164.9C250.1 164.9 239.7 160.2 237.8 172.5Z" fill="white"/>
</g>
<path opacity="0.25" d="M158.9 368.8C228.433 368.8 284.8 355.682 284.8 339.5C284.8 323.318 228.433 310.2 158.9 310.2C89.3674 310.2 33 323.318 33 339.5C33 355.682 89.3674 368.8 158.9 368.8Z" fill="#042030"/>
<path d="M257.5 198.1L158.9 231.8L60.2 198.1L13 266.7L158.9 316.6L304.7 266.7L257.5 198.1Z" fill="#4E2999"/>
<path opacity="0.45" d="M30.2 263.9L151.2 310.2L109.6 269C109.6 269 41.3 252.5 30.2 263.9Z" fill="#240F4F"/>
<path opacity="0.45" d="M287.6 263.9L166.6 310.2L208.2 269C208.1 269 276.4 252.5 287.6 263.9Z" fill="#240F4F"/>
<path d="M158.9 316.6L13 266.7V273.2L158.9 323.1L304.7 273.2V266.7L158.9 316.6Z" fill="#994EF8"/>
<path d="M81.2 346.6L98.1 302.3L152.5 320.9L81.2 346.6Z" fill="#3B1E77"/>
<path opacity="0.45" d="M85.9 333.8L152.5 320.9L98.1 302.3L85.9 333.8Z" fill="#3B1E77"/>
<path d="M158.9 318.6L81.2 346.6L87 352.7L158.9 327.1L230.7 352.7L236.6 346.6L158.9 318.6Z" fill="#994EF8"/>
<path d="M236.6 346.6L219.6 302.3L165.2 320.9L236.6 346.6Z" fill="#3B1E77"/>
<path opacity="0.45" d="M231.8 333.8L165.2 320.9L219.6 302.3L231.8 333.8Z" fill="#3B1E77"/>
<path d="M158.9 327.1C161.827 327.1 164.2 324.727 164.2 321.8C164.2 318.873 161.827 316.5 158.9 316.5C155.973 316.5 153.6 318.873 153.6 321.8C153.6 324.727 155.973 327.1 158.9 327.1Z" fill="white" fill-opacity="0.5"/>
<path d="M253.3 198.1L158.9 245.1L64.5 198.1C60.2 203.8 25.6 261.5 25.6 261.5C26 261.5 26.3 261.6 26.7 261.6C113.5 270.3 137.6 297.6 145.6 304.2C153.6 310.9 159 310.2 159 310.2C159 310.2 164.4 310.9 172.4 304.2C180.4 297.6 204.5 270.3 291.3 261.6C291.7 261.6 292 261.5 292.4 261.5C292.2 261.5 257.5 203.9 253.3 198.1Z" fill="#F5B304"/>
<path d="M292.2 261.5C291.8 261.5 291.5 261.6 291.1 261.6C204.3 270.3 180.2 297.6 172.2 304.2C164.2 310.9 158.8 310.2 158.8 310.2C158.8 310.2 153.4 310.9 145.4 304.2C137.4 297.6 113.3 270.3 26.5 261.6C26.1 261.6 25.8 261.5 25.4 261.5C24.7 262.6 25.4 263.4 25.4 263.4C113.1 271.9 136.4 299.3 144.4 306C152.4 312.6 158.7 312.1 158.7 312.1C158.7 312.1 165 312.6 173 306C181 299.4 204.3 272 292 263.4C292.2 263.4 292.9 262.6 292.2 261.5Z" fill="#994EF8"/>
<path d="M249.7 192.6C201.4 181 158.8 220.7 158.8 220.7C158.8 220.7 116.2 181 67.9 192.6C67.9 192.6 54.2 213.6 35.3 249.3C35.3 249.3 130.4 260 158.8 299.9C187.2 260 282.3 249.3 282.3 249.3C263.4 213.6 249.7 192.6 249.7 192.6Z" fill="#F5EFFB"/>
<path d="M282.3 249.3C282.3 249.3 187.2 260 158.8 299.9C130.5 260 35.4 249.3 35.4 249.3C35.4 249.3 35.4 252.5 30.1 258.8C30.1 258.8 116.4 265 147.8 300.8C155.2 309.2 158.8 308.2 158.8 308.2C158.8 308.2 162.5 309.2 169.8 300.8C201.1 265 287.5 258.8 287.5 258.8C282.3 252.4 282.3 249.3 282.3 249.3Z" fill="#DFCBF4"/>
<path d="M244.3 196.8C244.3 196.8 208.2 187.6 158.8 225.9C109.5 187.7 73.3 196.8 73.3 196.8L48.9 244.2C123.1 249.3 158.8 286.8 158.8 286.8C158.8 286.8 194.5 249.3 268.7 244.2L244.3 196.8ZM158.9 282.3C158.9 282.3 125.5 248.1 54.7 241.4L75.2 198.8C75.2 198.8 110.7 191.9 158.9 228.1C207.1 191.9 242.6 198.8 242.6 198.8L263.1 241.4C192.3 248.1 158.9 282.3 158.9 282.3Z" fill="#863ED5"/>
<path opacity="0.2" d="M168 261.594C181.333 251.76 223 230 251 233" stroke="#863ED5" stroke-width="3" stroke-linecap="round"/>
<path opacity="0.2" d="M168 234C179.833 224.735 210.6 206.581 239 208.088" stroke="#863ED5" stroke-width="3" stroke-linecap="round"/>
<path opacity="0.2" d="M168 248C180.833 238.022 214.2 218.472 245 220.095" stroke="#863ED5" stroke-width="3" stroke-linecap="round"/>
<path opacity="0.2" d="M151 261.594C137.667 251.76 96 230 68 233" stroke="#863ED5" stroke-width="3" stroke-linecap="round"/>
<path opacity="0.2" d="M151 234C139.167 224.735 108.4 206.581 80 208.088" stroke="#863ED5" stroke-width="3" stroke-linecap="round"/>
<path opacity="0.2" d="M151 248C138.167 238.022 104.8 218.472 74 220.095" stroke="#863ED5" stroke-width="3" stroke-linecap="round"/>
<path d="M158.9 220.7C158.9 220.7 159.9 217.2 161.8 218.2C161.8 218.2 160.6 274.9 162.6 297C163.1 302.5 167.9 310 169.8 312.8H167.3L166.6 315.1C166.6 315.1 159.2 302.6 158.9 297.7C157.4 275.7 158.2 226 158.9 220.7Z" fill="#54DAF5"/>
</g>
<defs>
<clipPath id="clip0_132_1287">
<rect width="314" height="450" fill="white"/>
</clipPath>
</defs>
</svg>
